<svg viewBox="0 0 225 54" version="1.1" xmlns="http://www.w3.org/2000/svg" xmlns:xlink="http://www.w3.org/1999/xlink">
    <g id="Page-1" stroke="none" stroke-width="1" fill="none" fill-rule="evenodd">
        <g id="9-spokes" fill-rule="nonzero">
            <g id="icon" transform="translate(0.000000, 0.842100)" fill="#3AD3A6">
                <path d="M24.0324,18.6558 L24.4834,18.4978 C24.6604,18.4368 24.8334,18.4008 25.0724,18.3488 L25.1834,18.3228 C25.2674,18.3038 25.3524,18.2838 25.4324,18.2748 C25.4884,18.2698 25.5534,18.2598 25.6644,18.2298 C25.8934,18.2008 26.1254,18.1848 26.3334,18.1728 L27.1394,18.1758 L27.2764,18.1828 C27.4904,18.1928 27.7054,18.2018 27.9444,18.2398 L28.0414,18.2578 C28.1214,18.2618 28.2044,18.2748 28.3014,18.2988 C28.5694,18.3518 28.8354,18.4188 29.0824,18.4888 C29.1424,18.5098 29.2054,18.5288 29.2694,18.5488 L29.6904,18.6998 C29.8824,18.7728 30.0734,18.8588 30.2634,18.9498 C30.4844,19.0538 30.7194,19.1828 31.0504,19.3868 C31.1554,19.4528 31.2604,19.5198 31.3614,19.5938 L31.4884,19.6848 C31.5564,19.7328 31.6254,19.7808 31.6834,19.8258 L32.0804,20.1538 C32.5784,20.5928 33.0004,21.0578 33.3654,21.5738 L33.5294,21.8138 C33.6134,21.9438 33.6984,22.0728 33.7874,22.2238 C33.8234,22.3028 33.8614,22.3758 33.8974,22.4348 C34.0004,22.6328 34.1034,22.8408 34.1914,23.0348 C34.2454,23.1658 34.2974,23.2928 34.3424,23.4158 C34.3654,23.4888 34.3904,23.5638 34.4364,23.6928 C34.4534,23.7418 34.4694,23.7928 34.4744,23.7988 C34.4984,23.8918 34.5234,23.9758 34.5484,24.0648 L34.5764,24.1708 C34.5874,24.2238 34.5994,24.2668 34.6054,24.2718 L34.7894,25.2848 C34.7894,25.3118 34.7914,25.4048 34.8034,25.4408 L34.8144,25.5908 C34.8204,25.6758 34.8264,25.7628 34.8334,25.8088 C34.8334,25.8478 34.8344,25.8958 34.8364,25.9528 C34.8424,26.0568 34.8434,26.1548 34.8374,26.2688 C34.8374,26.3808 34.8374,26.4798 34.8334,26.6178 L34.8194,26.6938 C34.8104,26.8318 34.7994,26.9658 34.7864,27.0888 C34.7794,27.1328 34.7754,27.1758 34.7714,27.2178 L34.7644,27.2868 C34.7554,27.3308 34.7504,27.3688 34.7484,27.4168 L34.7304,27.4858 C34.7094,27.6318 34.6804,27.7788 34.6474,27.9408 L34.6254,28.0168 C34.6174,28.0568 34.6074,28.0958 34.5934,28.1408 L34.5614,28.2778 C34.5244,28.4158 34.4864,28.5528 34.4534,28.6658 L34.3664,28.8958 C34.2854,29.1288 34.1844,29.3768 34.0354,29.6848 L22.6704,49.4538 C22.0274,50.5818 22.4194,52.0298 23.5444,52.6808 C23.9154,52.8948 24.3154,53.0018 24.7344,52.9998543 C25.5754,52.9948 26.3594,52.5388 26.7784,51.8118 L36.4964,34.9168 L38.5834,46.6648 C38.7934,47.8018 39.7774,48.6258 40.9244,48.6188 C41.0654,48.6188 41.2064,48.6028 41.3294,48.5768 C41.9524,48.4668 42.4964,48.1188 42.8574,47.5998 C43.2194,47.0828 43.3574,46.4538 43.2464,45.8338 L39.8294,26.6428 L48.9804,34.3028 C49.9494,35.0998 51.5144,34.9648 52.3154,33.9948 C52.7214,33.5098 52.9134,32.8978 52.8564,32.2688 C52.8004,31.6398 52.5014,31.0698 52.0174,30.6668 L37.0654,18.1598 L49.0054,18.1438 C50.3024,18.1368 51.3584,17.0728 51.3604,15.7718 C51.3584,14.4698 50.2934,13.4088 48.9864,13.4058 L29.4974,13.4368 L38.6294,5.7498 C39.6234,4.9018 39.7474,3.4068 38.9074,2.4188 C38.4564,1.8818 37.7914,1.5748 37.0854,1.5788 C36.5344,1.5808 35.9984,1.7768 35.5764,2.1308 L20.6664,14.6828 L22.7194,2.9298 C22.8274,2.3098 22.6864,1.6828 22.3224,1.1658 C21.9574,0.6478 21.4134,0.3018 20.7904,0.1948 C19.4844,-0.0372 18.2734,0.8508 18.0494,2.1178 L14.7044,21.3218 L8.7194,10.9998 C8.2974,10.2668 7.5064,9.8138 6.6534,9.8178 C6.2414,9.8208 5.8354,9.9318 5.4794,10.1378 C4.3574,10.7848 3.9714,12.2348 4.6204,13.3698 L14.3954,30.2338 L3.1774,26.1718 C2.9144,26.0768 2.6404,26.0288 2.3614,26.0298 C1.3704,26.0348 0.4784,26.6658 0.1424,27.5978 C-0.0736,28.1978 -0.0426,28.8408 0.2284,29.4128 C0.4964,29.9818 0.9714,30.4118 1.5624,30.6198 L19.8984,37.2658 L8.6904,41.3628 C8.0964,41.5768 7.6224,42.0118 7.3554,42.5828 C7.0884,43.1568 7.0624,43.7998 7.2784,44.3908 C7.6204,45.3268 8.5194,45.9558 9.5144,45.9508 C9.7724,45.9488 10.0384,45.9018 10.3174,45.8098 L26.6864,39.8178 L30.3584,33.4368 L29.0334,33.9148 C28.8964,33.9638 28.7494,33.9968 28.6034,34.0308 L28.4184,34.0568 L28.3914,34.0708 C28.3624,34.0788 28.3344,34.0848 28.3054,34.0898 C28.2604,34.1008 28.2154,34.1098 28.1694,34.1168 L28.0324,34.1448 C28.0004,34.1518 27.9764,34.1538 27.9204,34.1588 C27.6234,34.2028 27.3194,34.2268 26.9524,34.2448 L26.7774,34.2448 C26.4334,34.2468 26.0704,34.2188 25.6344,34.1538 L25.4464,34.1208 C25.4054,34.1128 25.3634,34.1078 25.3084,34.0948 C25.0904,34.0528 24.8834,34.0008 24.6544,33.9388 C24.6124,33.9288 24.5654,33.9128 24.5304,33.9008 L23.7154,33.6118 L23.6374,33.5798 C23.4704,33.5098 23.3034,33.4408 23.1434,33.3518 L22.9404,33.2518 C22.8964,33.2338 22.8504,33.2078 22.7874,33.1658 C22.4814,32.9888 22.1964,32.7998 21.8784,32.5608 L21.5944,32.3288 L21.5884,32.3328 C21.5744,32.3148 21.5334,32.2668 21.4984,32.2458 C21.4344,32.1868 21.3674,32.1248 21.3484,32.1178 C21.3094,32.0738 21.2744,32.0408 21.2534,32.0228 L21.1974,31.9678 C21.1514,31.9248 21.1064,31.8828 21.0604,31.8338 C20.9604,31.7338 20.8574,31.6238 20.7624,31.5088 L20.6944,31.4308 C20.5984,31.3228 20.5194,31.2228 20.4364,31.1148 L20.3914,31.0568 C20.3744,31.0328 20.3534,31.0048 20.3624,31.0248 C20.2734,30.8948 20.1834,30.7618 20.1064,30.6398 L19.6484,29.8558 C19.5604,29.6908 19.4734,29.5248 19.4114,29.3708 L19.3214,29.1668 C19.3024,29.1308 19.2884,29.0958 19.2754,29.0598 L19.2524,28.9778 C19.2014,28.8458 19.1494,28.6988 19.1074,28.5458 L19.0514,28.3668 L19.0484,28.3648 C19.0384,28.3268 19.0274,28.2888 19.0184,28.2468 L19.0004,28.1758 C18.9884,28.1188 18.9744,28.0648 18.9614,28.0098 C18.9474,27.9518 18.9324,27.8948 18.9134,27.7948 C18.8914,27.6898 18.8684,27.5768 18.8554,27.5078 C18.8554,27.4728 18.8494,27.4308 18.8384,27.3718 C18.8274,27.3018 18.8194,27.2318 18.8064,27.1158 L18.7944,26.9848 C18.7844,26.8658 18.7734,26.7418 18.7674,26.6218 L18.7524,26.3758 C18.7514,26.1958 18.7504,26.0078 18.7634,25.8208 L18.7814,25.5498 C18.7904,25.4758 18.7984,25.3998 18.7974,25.3658 L18.9914,24.2288 L19.0124,24.1578 C19.0314,24.0938 19.0504,24.0288 19.0584,23.9898 C19.1004,23.8598 19.1414,23.7238 19.1544,23.6438 L19.1984,23.5548 C19.2884,23.2828 19.4034,23.0098 19.5604,22.6928 L19.6034,22.6048 C19.6414,22.5258 19.6784,22.4488 19.7374,22.3518 C19.8654,22.1018 20.0194,21.8678 20.2054,21.5918 C20.2954,21.4678 20.3864,21.3418 20.5244,21.1748 L20.5774,21.1128 C20.6164,21.0618 20.6594,21.0138 20.7034,20.9658 L20.7744,20.8848 C20.9504,20.6828 21.1524,20.4798 21.3334,20.3068 L21.9234,19.8058 C21.9584,19.7818 21.9894,19.7578 22.0334,19.7238 C22.0914,19.6788 22.1484,19.6418 22.2384,19.5838 C22.2854,19.5468 22.3444,19.5108 22.4034,19.4708 L22.4694,19.4298 C22.5464,19.3778 22.6264,19.3278 22.7074,19.2788 L22.8984,19.1698 C22.9784,19.1258 23.0654,19.0788 23.1444,19.0418 L23.2164,19.0018 C23.2674,18.9748 23.3154,18.9468 23.3994,18.9108 C23.5704,18.8348 23.7374,18.7598 23.9344,18.6828 L24.0324,18.6558 Z" id="Fill-1-path"></path>
            </g>
            <g id="text" transform="translate(60.499700, 13.755700)" fill="#1E252D">
                <path d="M24.8748,22.9858 C24.2758,22.5498 23.8388,21.7558 23.8388,20.8958 C23.8388,19.4538 24.9898,18.3328 26.4358,18.3328 C27.1538,18.3328 27.6608,18.5888 28.0228,18.8348 C29.9298,20.2468 32.0138,21.1088 34.4658,21.1088 C36.7268,21.1088 38.1038,20.2028 38.1038,18.7308 L38.1038,18.6568 C38.1038,17.2508 37.2358,16.5378 33.0198,15.4558 C27.9438,14.1638 24.6668,12.7518 24.6668,7.7448 L24.6668,7.6798 C24.6668,3.0998 28.3458,0.0708 33.4918,0.0708 C36.5548,0.0708 39.2218,0.8638 41.4848,2.3138 C42.1018,2.6678 42.7098,3.4238 42.7098,4.5098 C42.7098,5.9458 41.5548,7.0658 40.1128,7.0658 C39.5748,7.0658 39.1458,6.9118 38.7198,6.6688 C36.8788,5.5858 35.1448,4.9708 33.4208,4.9708 C31.2878,4.9708 30.1788,5.9458 30.1788,7.1728 L30.1788,7.2368 C30.1788,8.8958 31.2578,9.4378 35.6128,10.5518 C40.7298,11.8838 43.6178,13.7278 43.6178,18.1268 L43.6178,18.1978 C43.6178,23.2008 39.7918,26.0078 34.3568,26.0078 C31.0468,26.0078 27.6898,24.9978 24.8748,22.9858" id="Fill-4"></path>
                <path d="M56.5398,13.146 C59.3188,13.146 60.9338,11.487 60.9338,9.334 L60.9338,9.265 C60.9338,6.769 59.2018,5.439 56.4378,5.439 L52.1478,5.439 L52.1478,13.146 L56.5398,13.146 Z M46.5998,3.208 C46.5998,1.654 47.8188,0.433 49.3738,0.433 L56.8978,0.433 C62.9178,0.433 66.5518,3.998 66.5518,9.154 L66.5518,9.225 C66.5518,15.054 62.0208,18.074 56.3618,18.074 L52.1478,18.074 L52.1478,23.09 C52.1478,24.637 50.9218,25.858 49.3738,25.858 C47.8188,25.858 46.5998,24.637 46.5998,23.09 L46.5998,3.208 Z" id="Fill-6"></path>
                <path d="M89.6335,13.105 L89.6335,13.045 C89.6335,8.718 86.4665,5.115 81.9945,5.115 C77.5375,5.115 74.4275,8.647 74.4275,12.973 L74.4275,13.045 C74.4275,17.365 77.6015,20.965 82.0745,20.965 C86.5385,20.965 89.6335,17.44 89.6335,13.105 M68.6315,13.105 L68.6315,13.045 C68.6315,5.874 74.2975,0 82.0745,0 C89.8515,0 95.4275,5.79 95.4275,12.973 L95.4275,13.045 C95.4275,20.203 89.7765,26.079 81.9945,26.079 C74.2165,26.079 68.6315,20.285 68.6315,13.105" id="Fill-8"></path>
                <path d="M98.1941,2.9902 C98.1941,1.4352 99.4261,0.2152 100.9691,0.2152 C102.5161,0.2152 103.7511,1.4352 103.7511,2.9902 L103.7511,11.4532 L113.9721,1.2982 C114.6701,0.6242 115.3471,0.2152 116.3141,0.2152 C117.8651,0.2152 118.8731,1.4012 118.8731,2.7642 C118.8731,3.6412 118.4751,4.2932 117.8651,4.8622 L110.7661,11.4872 L118.5161,21.2112 C118.9461,21.7562 119.2701,22.3332 119.2701,23.1622 C119.2701,24.7122 118.0791,25.8582 116.4591,25.8582 C115.3771,25.8582 114.7291,25.3292 114.1171,24.5332 L106.9101,15.1002 L103.7511,18.0452 L103.7511,23.0902 C103.7511,24.6372 102.5161,25.8582 100.9691,25.8582 C99.4261,25.8582 98.1941,24.6372 98.1941,23.0902 L98.1941,2.9902 Z" id="Fill-10"></path>
                <path d="M122.2781,22.873 L122.2781,3.208 C122.2781,1.654 123.5001,0.433 125.0531,0.433 L139.0361,0.433 C140.4041,0.433 141.5221,1.55 141.5221,2.915 C141.5221,4.293 140.4041,5.374 139.0361,5.374 L127.7981,5.374 L127.7981,10.486 L137.4111,10.486 C138.7881,10.486 139.8981,11.602 139.8981,12.973 C139.8981,14.344 138.7881,15.412 137.4111,15.412 L127.7981,15.412 L127.7981,20.711 L139.2231,20.711 C140.5951,20.711 141.7131,21.829 141.7131,23.201 C141.7131,24.566 140.5951,25.643 139.2231,25.643 L125.0531,25.643 C123.5001,25.643 122.2781,24.431 122.2781,22.873" id="Fill-12"></path>
                <path d="M144.8196,22.9858 C144.2106,22.5498 143.7896,21.7558 143.7896,20.8958 C143.7896,19.4538 144.9386,18.3328 146.3776,18.3328 C147.1016,18.3328 147.6006,18.5888 147.9636,18.8348 C149.8686,20.2468 151.9566,21.1088 154.4166,21.1088 C156.6736,21.1088 158.0496,20.2028 158.0496,18.7308 L158.0496,18.6568 C158.0496,17.2508 157.1836,16.5378 152.9776,15.4558 C147.8846,14.1638 144.6106,12.7518 144.6106,7.7448 L144.6106,7.6798 C144.6106,3.0998 148.2856,0.0708 153.4386,0.0708 C156.5006,0.0708 159.1666,0.8638 161.4356,2.3138 C162.0516,2.6678 162.6546,3.4238 162.6546,4.5098 C162.6546,5.9458 161.5046,7.0658 160.0646,7.0658 C159.5286,7.0658 159.0886,6.9118 158.6586,6.6688 C156.8266,5.5858 155.0996,4.9708 153.3756,4.9708 C151.2396,4.9708 150.1226,5.9458 150.1226,7.1728 L150.1226,7.2368 C150.1226,8.8958 151.2056,9.4378 155.5596,10.5518 C160.6826,11.8838 163.5506,13.7278 163.5506,18.1268 L163.5506,18.1978 C163.5506,23.2008 159.7436,26.0078 154.2966,26.0078 C150.9786,26.0078 147.6306,24.9978 144.8196,22.9858" id="Fill-14"></path>
                <path d="M13.217,11.9643 C13.217,11.9643 11.978,12.7523 9.398,12.5543 C7.8,12.4323 5.632,11.2313 5.632,8.5303 C5.632,6.4653 7.459,5.1083 9.398,5.0593 C12.388,4.9873 13.679,6.6343 13.82,8.5003 C13.992,10.7983 13.217,11.9643 13.217,11.9643 M9.5,0.0953 C3.897,0.0953 -3.55271368e-15,4.2063 -3.55271368e-15,8.7343 C-3.55271368e-15,12.8443 3.368,16.5383 7.91,16.5383 C10.149,16.5383 11.818,15.3933 11.818,15.3933 C10.152,17.9123 6.903,20.1013 5.23,21.6723 C4.875,22.0073 4.561,22.3773 4.412,22.8383 C4.338,23.0643 4.287,23.2963 4.287,23.5423 C4.287,24.9083 5.492,26.0183 6.978,26.0183 C7.665,26.0183 8.284,25.7723 8.762,25.3823 C8.79,25.3663 8.824,25.3403 8.864,25.3113 C12.662,22.5543 19.487,16.7133 19.487,8.7343 C19.487,4.1013 15.323,0.0953 9.5,0.0953" id="Fill-17"></path>
            </g>
        </g>
    </g>
</svg>
